<svg xmlns="http://www.w3.org/2000/svg" xml:space="preserve" viewBox="0 0 80 80"><path fill-rule="evenodd" d="M39.99631633 0C17.91092355 0 0 18.36167954 0 41.01354564 0 59.13101185 11.46014305 74.50417147 27.35504465 79.929838c2.00128928.37514666 2.73059326-.89126664 2.73059326-1.97891995 0-.97435997-.03437333-3.55249324-.05402666-6.9740665-11.12618506 2.47742661-13.47371033-5.49867985-13.47371033-5.49867985-1.81957596-4.73834655-4.44212482-5.99971985-4.44212482-5.99971985-3.63178738-2.54289327.27502386-2.49253327.27502386-2.49253327 4.01485563.28953332 6.12664624 4.22723989 6.12664624 4.22723989 3.56794258 6.2665865 9.36308644 4.45635989 11.64185438 3.40646658.36342532-2.64863993 1.39721996-4.45634655 2.53905994-5.48106653-8.88179578-1.0372933-18.22032622-4.55453322-18.22032622-20.27010616 0-4.47901322 1.55928663-8.1372398 4.11798924-11.00491972-.41253466-1.03729331-1.78519863-5.20662654.39289199-10.8538664 0 0 3.35676391-1.10275997 10.99849572 4.20206656 3.18978525-.9088933 6.61284917-1.36207996 10.01381308-1.37970663 3.39850792.0176 6.81911583.47081332 10.01381175 1.37970663 7.63682115-5.30482653 10.9886744-4.20206656 10.9886744-4.20206656 2.18300127 5.64723986.8103373 9.81657309.40025732 10.8538664 2.5636146 2.86767992 4.1106239 6.5259065 4.1106239 11.00491972 0 15.75585294-9.3532651 19.22274619-18.26207155 20.23738616 1.4340533 1.26639997 2.71340527 3.76901324 2.71340527 7.59593315 0 5.48106653-.04910667 9.90467975-.04910667 11.24914638 0 1.09771997.72193732 2.37419994 2.7502386 1.97387995C68.54968095 74.4890648 80.000002 59.12849185 80.000002 41.01354564 80.000002 18.36167954 62.08907711 0 39.99631767 0"/></svg>